# xmcd
#
# Track frame offsets: 
#        150
#        16353
#        29706
#        46359
#        59412
#        76215
#        90580
#        103633
#        118448
#        129851
#        142304
#        190607
#        202010
#        213937
#
# Disc length: 3784 seconds
#
# Revision: 4
# Processed by: cddbd v1.5.2PL0 Copyright (c) Steve Scherf et al.
# Submitted via: ExactAudioCopy v0.99pb5
#
DISCID=cb0ec60e
DTITLE=Jimi Hendrix - Astro Man - Studio Outtakes Vol.1 1966-1968
DYEAR=2003
DGENRE=Classic Rock
TTITLE0=Voodoo Chile (Slight Return) (17)
TTITLE1=Purple Haze #1 (4)
TTITLE2=La Pouppee Qui Fait Non (No No No No)
TTITLE3=Come On (3)
TTITLE4=One Rainy Wish (2)
TTITLE5=Angel (5)
TTITLE6=Look Over Yonder (1)
TTITLE7=51st Anniversary (5)
TTITLE8=Can You See Me (11)
TTITLE9=Cat Talkin' To Me (11)+(2)
TTITLE10=Red House Takes 1-4 (2,3,4,5)
TTITLE11=Fire (3)
TTITLE12=Purple Haze #2 (4)
TTITLE13=I Don't Live Today Takes 1-4 (5,6,7,4,3)
EXTD=Studio Outtakes 1966-68 [CD1]
EXTT0=
EXTT1=
EXTT2=
EXTT3=
EXTT4=
EXTT5=
EXTT6=
EXTT7=
EXTT8=
EXTT9=
EXTT10=
EXTT11=
EXTT12=
EXTT13=
PLAYORDER=
